# xmcd
#
# Track frame offsets: 
#        150
#        14871
#        30985
#        47360
#        63739
#        74627
#        89201
#        110989
#        127945
#        144132
#        159744
#        172005
#        189943
#        216158
#        231301
#        247779
#        261656
#        280498
#        307012
#        323373
#
# Disc length: 4513 seconds
#
# Revision: 0
# Processed by: cddbd v1.5.2PL0 Copyright (c) Steve Scherf et al.
# Submitted via: ExactAudioCopy v0.99pb4
#
DISCID=31119f14
DTITLE=Various Artist - De Topcollectie '70 - CD 2
DYEAR=2009
DGENRE=Pop
TTITLE0=Labelle - Voulez Vous Coucher Avec Moi Ce Soir? (Lady Marmalad
TTITLE0=e)
TTITLE1=La Bionda - One For You, One For Me
TTITLE2=Heatwave - Boogie Nights
TTITLE3=The Jacksons - Shake Your Body (Down To The Ground)
TTITLE4=The Intruders - She's A Winner
TTITLE5=The Three Degrees - Dirty Ol' Man
TTITLE6=Earth, Wind and Fire With The Emotions - Boogie Wonderland
TTITLE7=Marshall, Hain - Dancing In The City
TTITLE8=Grace Jones - La Vie En Rose
TTITLE9=Dave - Dansez Maintenant
TTITLE10=Christie - Yellow River
TTITLE11=Boney M. - Sunny
TTITLE12=Pacific Gas and Electric - Are You Ready
TTITLE13=The Hues Corporation - Rock The Boat
TTITLE14=Emotions - Best Of My Love
TTITLE15=Sly and The Family Stone - Family Affair
TTITLE16=Johan Verminnen - Laat Me Nu Toch Niet Alleen
TTITLE17=John Miles - Music
TTITLE18=John Denver - Calypso
TTITLE19=Kansas - Dust In The Wind
EXTD=
EXTT0=
EXTT1=
EXTT2=
EXTT3=
EXTT4=
EXTT5=
EXTT6=
EXTT7=
EXTT8=
EXTT9=
EXTT10=
EXTT11=
EXTT12=
EXTT13=
EXTT14=
EXTT15=
EXTT16=
EXTT17=
EXTT18=
EXTT19=
PLAYORDER=
